<?xml version="1.0" encoding="UTF-8"?>
<svg width="257px" height="257px" viewBox="0 0 257 257" version="1.1" xmlns="http://www.w3.org/2000/svg" xmlns:xlink="http://www.w3.org/1999/xlink">
    <!-- Generator: Sketch 52.6 (67491) - http://www.bohemiancoding.com/sketch -->
    <title>kusy</title>
    <desc>Created with Sketch.</desc>
    <g id="Page-1" stroke="none" stroke-width="1" fill="none" fill-rule="evenodd">
        <g id="kusy" fill="#FFFFFF" fill-rule="nonzero">
            <path d="M149.156571,151.716704 C149.156571,151.716704 213.594045,105.693467 206.446497,53.0206218 C206.291313,51.8732031 205.90792,51.0962109 205.424114,50.5992972 C204.93118,50.1023836 204.173521,49.7138875 203.023341,49.560296 C151.018767,42.3234266 105.586652,107.581739 105.586652,107.581739 C66.1701603,102.910751 69.0364823,110.689708 51.053507,153.442349 C47.6120949,161.591733 53.1895558,164.401554 59.3055931,162.106716 C65.4216304,159.829948 78.9134261,154.779499 78.9134261,154.779499 L102.556018,178.703632 C102.556018,178.703632 97.5719041,192.382309 95.3171859,198.571142 C93.0624677,204.759975 95.8192486,210.415756 103.879638,206.937361 C146.089424,188.723217 153.775548,191.632421 149.156571,151.716704 Z M158.367141,98.2668667 C152.908349,92.7285384 152.908349,83.7750583 158.367141,78.23673 C163.825932,72.7164713 172.671365,72.7164713 178.139285,78.23673 C183.607205,83.7569887 183.598077,92.7195037 178.139285,98.2668667 C172.671365,103.787125 163.816804,103.787125 158.367141,98.2668667 Z" id="Shape"></path>
        </g>
    </g>
</svg>