<?xml version="1.0" encoding="UTF-8"?>
<svg width="256px" height="256px" viewBox="0 0 256 256" version="1.1" xmlns="http://www.w3.org/2000/svg" xmlns:xlink="http://www.w3.org/1999/xlink">
    <!-- Generator: Sketch 51.3 (57544) - http://www.bohemiancoding.com/sketch -->
    <title>medienmacher</title>
    <desc>Created with Sketch.</desc>
    <defs>
        <polygon id="path-1" points="0 0.00427156212 187.996168 0.00427156212 187.996168 129.9349 0 129.9349"></polygon>
        <polygon id="path-3" points="0.00814259518 0.00427156212 187.996168 0.00427156212 187.996168 129.9349 0.00814259518 129.9349"></polygon>
    </defs>
    <g id="Page-1" stroke="none" stroke-width="1" fill="none" fill-rule="evenodd">
        <g id="medienmacher">
            <g id="medienmacher-logo-blue" transform="translate(34.000000, 63.000000)">
                <g id="Group-3">
                    <g id="Fill-1-Clipped">
                        <mask id="mask-2" fill="white">
                            <use xlink:href="#path-1"></use>
                        </mask>
                        <g id="path-1"></g>
                        <path d="M169.195669,0.0174239999 C161.847603,0.0167286293 155.484741,4.21299205 152.391124,10.3293723 L152.390126,10.3287763 L131.607544,50.0596683 L110.156085,9.14456018 C106.874468,3.67467588 100.868945,0.011364342 94.0038518,0.0108676487 C86.6972977,0.0102716168 80.3639728,4.15865381 77.2512955,10.2186097 L77.2511958,10.2185104 L56.4005588,49.9744357 L35.6234654,10.3339419 L35.6223677,10.3343392 C32.5328412,4.20921718 26.1661873,0.0049073295 18.8120344,0.00421195893 C8.42782845,0.00331791104 0.00904076433,8.38273205 0.00814267516,18.7201111 L-3.99150743e-05,111.20261 C-0.000938004246,121.539989 8.41635287,129.920893 18.8005588,129.921787 C29.184665,129.922681 37.6034527,121.543366 37.6043507,111.205888 L37.6057478,95.0471645 L39.5331469,98.7246815 C42.6044123,104.901559 49.0000047,109.148982 56.3922764,109.149677 C63.7219813,109.150273 70.0717711,104.975169 73.1738709,98.883822 L73.1745694,98.88412 L75.1932743,95.0344491 L75.1918773,111.209166 C75.1909792,121.546644 83.6082701,129.927449 93.9923762,129.928343 C104.376482,129.929337 112.79527,121.549823 112.796168,111.212544 L112.797565,95.0391181 L114.627073,98.5313684 L114.627372,98.5312691 C117.659221,104.816227 124.112391,109.155538 131.584094,109.156234 C139.013087,109.15683 145.436022,104.868479 148.490523,98.642429 L150.385192,95.0306743 C150.384293,104.604735 150.383695,111.145987 150.383695,111.215822 C150.382797,121.553101 158.800087,129.934006 169.184194,129.9349 C179.5684,129.935893 187.987087,121.55638 187.988085,111.2191 L187.996168,18.7366013 C187.997166,8.39922226 179.579875,0.0183180478 169.195669,0.0174239999" id="Fill-1" fill="#FFFFFF" fill-rule="nonzero" mask="url(#mask-2)"></path>
                    </g>
                </g>
                <g id="Group-6">
                    <g id="Fill-4-Clipped">
                        <mask id="mask-4" fill="white">
                            <use xlink:href="#path-3"></use>
                        </mask>
                        <g id="path-3"></g>
                        <path d="M169.195669,0.0174239999 C161.847603,0.0167286293 155.484741,4.21299205 152.391124,10.3293723 L152.390126,10.3287763 L131.607544,50.0596683 L111.149871,11.040041 C110.857293,10.3943398 110.527994,9.76870495 110.166563,9.16442792 L110.156085,9.14456018 L110.154988,9.14515622 C106.87337,3.67527192 100.868945,0.011364342 94.0038518,0.0108676487 C86.6972977,0.0102716168 80.3639728,4.15865381 77.2512955,10.2186097 L77.251096,10.2185104 L56.4005588,49.9744357 L35.6234654,10.3339419 C32.5339389,4.20862115 26.1661873,0.0049073295 18.8119346,0.00421195893 C8.42782845,0.00331791104 0.00904076433,8.38273205 0.00814267516,18.7201111 C0.0078433121,21.986366 0.847955839,25.0573211 2.32511295,27.730425 L39.5330471,98.7246815 C42.6044123,104.901559 49.0000047,109.148982 56.3922764,109.149677 C63.7219813,109.150273 70.0717711,104.975169 73.1738709,98.883822 L73.1745694,98.88412 L75.1932743,95.0344491 L75.1918773,111.209166 C75.1909792,121.546644 83.6081703,129.927449 93.9923762,129.928343 C104.376482,129.929337 112.79527,121.549823 112.796168,111.212544 L112.797565,95.0391181 L114.627073,98.5313684 L114.627372,98.5312691 C117.659221,104.816227 124.112391,109.155538 131.584094,109.156234 C139.013087,109.15683 145.436022,104.868479 148.490523,98.642429 L150.385192,95.0306743 C150.384293,104.604735 150.383695,111.145987 150.383695,111.215822 C150.382797,121.553101 158.800087,129.934006 169.184194,129.9349 C179.5684,129.935893 187.987087,121.55638 187.988085,111.2191 L187.996168,18.7366013 C187.997166,8.39922226 179.579775,0.0183180478 169.195669,0.0174239999" id="Fill-4" fill="#FFFFFF" fill-rule="nonzero" mask="url(#mask-4)"></path>
                    </g>
                </g>
                <path d="M169.122238,0.00656018473 C161.743974,0.00586440756 155.354963,4.20458143 152.248632,10.324538 L152.24763,10.3239416 L131.37964,50.0780647 L110.837893,11.0356223 C110.544113,10.3895435 110.213461,9.76354281 109.850544,9.15891245 L109.840023,9.1390331 L109.838921,9.13962948 C106.543817,3.66654688 100.514717,0.000496983691 93.6214102,0 C86.2848289,-0.00059638043 79.9254764,4.15021141 76.8000072,10.2137106 L76.7998068,10.2136112 L55.8635817,49.9927823 L35.0011022,10.3291102 L35,10.3296072 C36.2781228,12.854682 36.9985448,15.7053804 36.9983444,18.7235624 L36.991531,95.0919649 L38.9267508,98.7715328 C42.0107382,104.952022 48.432614,109.201928 55.8552653,109.202624 C63.2150925,109.20322 69.5909776,105.025675 72.7058259,98.9307663 L72.7065273,98.9310645 L74.7335283,95.0791427 L74.7321255,111.263317 C74.7312237,121.60684 83.1830063,129.992545 93.6098875,129.99344 C104.036668,129.994434 112.490054,121.610021 112.490956,111.266697 L112.492359,95.0838144 L114.329385,98.5781067 L114.329685,98.5780073 C117.373994,104.86664 123.853684,109.208488 131.356093,109.209184 C138.815617,109.209781 145.264947,104.918923 148.332001,98.6892323 L150.234456,95.0753657 C150.233554,104.655025 150.232953,111.200101 150.232953,111.269977 C150.232052,121.613301 158.683934,129.999105 169.110715,130 C179.537596,130.000994 187.990882,121.616581 187.991884,111.273257 L188,18.7366827 C188.001002,8.39325937 179.549019,0.00745475537 169.122238,0.00656018473" id="Fill-7" fill="#FFFFFF" fill-rule="nonzero"></path>
                <path d="M169.125038,0.00656018473 C161.747868,0.00586440756 155.359805,4.20458143 152.253934,10.324538 L152.252932,10.3239416 L131.388036,50.0780647 L109.851615,9.1390331 C106.556899,3.6659505 100.527691,0.000496983691 93.6354065,0 C86.2999132,-0.00059638043 79.9415038,4.15021141 76.8164981,10.2137106 L76.8163979,10.2136112 L39.2790612,81.5455811 C37.8258078,84.1990764 37.0003005,87.2401196 37,90.4724021 C36.9989982,100.815925 45.4496276,109.20163 55.8748622,109.202624 C63.2336982,109.20322 69.6092389,105.026073 72.7236252,98.9310645 L74.7503256,95.0791427 L74.748923,111.263317 C74.7480214,121.60684 83.1985506,129.992545 93.6238855,129.99344 C104.04912,129.994434 112.501252,121.610021 112.502154,111.266697 L112.503556,95.0838144 L114.34031,98.5781067 L114.340611,98.5780073 C117.384468,104.86664 123.863197,109.208488 131.364493,109.209184 C138.822911,109.209781 145.271285,104.918923 148.337884,98.6892323 L150.240057,95.0753657 C150.239155,104.655025 150.238554,111.200101 150.238554,111.269977 C150.237652,121.613301 158.688282,129.999105 169.113517,130 C179.538851,130.000994 187.990883,121.616581 187.991885,111.273257 L188,18.7366827 C188.001002,8.39325937 179.550372,0.00745475537 169.125038,0.00656018473" id="Fill-9" fill="#FFFFFF" fill-rule="nonzero"></path>
                <path d="M169.284593,0.00656018473 C161.969785,0.00586440756 155.635623,4.20458143 152.556106,10.324538 L152.555113,10.3239416 L131.866495,50.0780647 L111.501315,11.0353241 C111.210161,10.3894441 110.882551,9.7637416 110.522756,9.15931003 L110.512226,9.1390331 L110.511133,9.13962948 C107.244368,3.66654688 101.26712,0.000496983691 94.432999,0 C87.1596141,-0.00059638043 80.8549542,4.15021141 77.7563651,10.2137106 L77.7561664,10.2136112 L57,49.9927823 L73.6220984,81.8689186 C74.9567774,84.4459779 75.710738,87.3728142 75.71044,90.4757816 C75.710142,93.5182164 74.9841942,96.3907821 73.6973951,98.9307663 L73.6980905,98.9310645 L75.7076586,95.0792421 L75.7061685,111.263317 C75.7052745,121.60684 84.0844682,129.992545 94.4215753,129.99344 C104.758782,129.994434 113.139466,121.610021 113.14036,111.266697 L113.14175,95.083715 L114.962977,98.5781067 C117.981104,104.86674 124.405365,109.208488 131.84325,109.209184 C139.23852,109.209781 145.631589,104.918426 148.672265,98.6888347 L148.673159,98.6892323 L150.559253,95.0753657 C150.558359,104.655025 150.557763,111.200101 150.557763,111.269977 C150.556869,121.613301 158.935963,129.999105 169.27317,130 C179.610376,130.000994 187.99096,121.616581 187.991954,111.273257 L188,18.7366827 C188.000993,8.39325937 179.6217,0.00745475537 169.284593,0.00656018473" id="Fill-11" fill="#FFFFFF" fill-rule="nonzero"></path>
                <path d="M169.1669,0.00656018473 C161.806092,0.00586440756 155.432197,4.20458143 152.333214,10.324538 L152.332215,10.3239416 L131.513595,50.0780647 L111.020447,11.0356223 C110.727362,10.3895435 110.397592,9.76354281 110.035434,9.15891245 L110.024938,9.1390331 L110.023838,9.13962948 C106.73653,3.66654688 100.721693,0.000496983691 93.8446955,0 C83.4424828,-0.000894570644 75.0091964,8.3833197 75.0081968,18.7268425 L75,111.263317 C74.9992003,121.60684 83.4309873,129.992545 93.8332001,129.99344 C104.235313,129.994434 112.668699,121.610021 112.669599,111.266697 L112.670998,95.0838144 L114.503678,98.5781067 C117.540785,104.86674 124.005445,109.208488 131.490104,109.209184 C138.93188,109.209781 145.365152,104.918426 148.42505,98.6888347 L148.425849,98.6892323 L150.323804,95.0753657 C150.322904,104.655025 150.322304,111.200101 150.322304,111.269977 C150.321405,121.613301 158.753292,129.999105 169.155404,130 C179.557617,130.000994 187.990904,121.616581 187.991903,111.273257 L188,18.7366827 C188.001,8.39325937 179.569013,0.00745475537 169.1669,0.00656018473" id="Fill-13" fill="#FFFFFF" fill-rule="nonzero"></path>
                <path d="M169.1669,0.00656018473 C161.806092,0.00586440756 155.432197,4.20458143 152.333214,10.324538 L152.332215,10.3239416 L131.513595,50.0780647 L111.020447,11.0356223 C110.727362,10.3895435 110.397592,9.76354281 110.035434,9.15891245 L110.024938,9.1390331 L110.023838,9.13962948 C106.73653,3.66654688 100.721693,0.000496983691 93.8446955,0 C83.4424828,-0.000894570644 75.0090964,8.3833197 75.0081968,18.7268425 C75.0078969,21.4983217 75.6131591,24.1291546 76.6994323,26.4959897 L93.8444956,59.1868812 L75.0014994,95.0791427 L75,111.263317 C74.9991004,121.60684 83.4309873,129.992545 93.8332001,129.99344 C104.235313,129.994434 112.668699,121.610021 112.669599,111.266697 L112.670998,95.0838144 L114.503678,98.5781067 C117.540885,104.86674 124.005445,109.208488 131.490104,109.209184 C138.93188,109.209781 145.365152,104.918426 148.42505,98.6888347 L148.425849,98.6892323 L150.323804,95.0753657 C150.322904,104.655025 150.322304,111.200101 150.322304,111.269977 C150.321405,121.613301 158.753292,129.999105 169.155404,130 C179.557617,130.000994 187.990904,121.616581 187.991903,111.273257 L188,18.7366827 C188.001,8.39325937 179.569013,0.00745475537 169.1669,0.00656018473" id="Fill-15" fill="#FFFFFF" fill-rule="nonzero"></path>
                <path d="M169.198004,0 C161.849353,-0.000695812281 155.485985,4.1982331 152.39212,10.3184985 L152.391122,10.3179021 L131.606886,50.0740314 L111.147584,11.0296187 C112.210707,13.3770905 112.802495,15.9819135 112.802196,18.7245073 C112.801896,22.0446253 111.934273,25.1629577 110.412789,27.8668842 L94,59.1833075 L114.625063,98.576521 C117.657153,104.865471 124.111136,109.207439 131.583434,109.208135 C139.012919,109.208731 145.435567,104.91716 148.490411,98.6872546 L148.491209,98.6876522 L150.386029,95.0736032 C150.38513,104.653745 150.384532,111.199152 150.384532,111.269032 C150.383634,121.612878 158.801595,129.999105 169.186528,130 C179.57156,130.000994 187.990919,121.616158 187.991917,111.272312 L188,18.7310678 C188.000998,8.38712243 179.582937,0.000894615789 169.198004,0" id="Fill-17" fill="#FFFFFF" fill-rule="nonzero"></path>
                <path d="M169.161898,0 C161.799135,-0.000695812281 155.423546,4.1982331 152.323741,10.3184985 L152.322741,10.3179021 L131.498591,50.0740314 L111,11.0296187 C112.065164,13.3770905 112.658089,15.9819135 112.657789,18.7245073 L112.65099,95.0820523 L114.484157,98.576521 C117.52207,104.865471 123.988447,109.207439 131.475094,109.208135 C138.918847,109.208731 145.353828,104.91716 148.414538,98.6872546 L148.415338,98.6876522 L150.313796,95.0736032 C150.312897,104.653745 150.312297,111.199152 150.312297,111.269032 C150.311397,121.612878 158.745523,129.999105 169.150399,130 C179.555375,130.000994 187.990901,121.616158 187.991901,111.272312 L188,18.7310678 C188.001,8.38712243 179.566773,0.000894615789 169.161898,0" id="Fill-19" fill="#FFFFFF" fill-rule="nonzero"></path>
                <path d="M169.252612,0 C161.925404,-0.000695812281 155.580417,4.19813369 152.495638,10.3182997 L152.494544,10.3179021 L114.338651,83.5150678 C113.475339,85.6672152 113.000199,88.016675 113,90.4770673 C112.999005,100.821013 121.392517,109.20724 131.747288,109.208135 C139.155295,109.208731 145.560085,104.917657 148.605957,98.6876522 L150.495273,95.0736032 C150.494378,104.653745 150.493781,111.199152 150.493781,111.269032 C150.492885,121.612878 158.886398,129.999105 169.241169,130 C179.59604,130.000994 187.990945,121.616158 187.99194,111.272312 L188,18.7310678 C188.000995,8.38712243 179.607383,0.000894615789 169.252612,0" id="Fill-21" fill="#FFFFFF" fill-rule="nonzero"></path>
                <path d="M168.995663,0 C161.567928,-0.000695812281 155.136078,4.1982331 152.008919,10.3184985 L152.00791,10.3179021 L131,50.0740314 L148.214911,82.5772122 C149.3504,84.9784604 149.984264,87.6564431 149.984063,90.4803475 C149.98376,93.4242299 149.293509,96.20897 148.06522,98.6872546 L148.066027,98.6876522 L149.981238,95.0736032 C149.98033,104.653745 149.979725,111.199152 149.979725,111.269032 C149.978817,121.612878 158.48737,129.999105 168.984063,130 C179.480856,130.000994 187.990821,121.616158 187.99183,111.272312 L188,18.7310678 C188.001009,8.38712243 179.492456,0.000894615789 168.995663,0" id="Fill-23" fill="#FFFFFF" fill-rule="nonzero"></path>
                <path d="M187.992049,111.272312 C187.991067,121.616257 179.709467,130.000994 169.494454,130 C159.279342,129.999205 150.999117,121.612977 151,111.269032 C151,111.005816 151.008049,18.7277875 151.008049,18.7277875 C151.008933,8.38384217 159.290631,-0.000894615789 169.505644,0 C179.720756,0.000894615789 188.000982,8.38712243 188,18.7311672 L187.992049,111.272312 Z" id="Fill-25" fill="#FFFFFF" fill-rule="nonzero"></path>
                <path d="M185.766895,27.9057939 L151.001472,95.1580188 C151.000589,104.715006 151,111.244593 151,111.314304 C150.999117,121.633149 159.279342,129.999108 169.494356,130 C179.709467,130.000992 187.991067,121.636421 187.992049,111.317576 L188,19 C187.999706,22.2247321 187.190844,25.2585784 185.766895,27.9057939" id="Fill-27" fill="#FFFFFF" fill-rule="nonzero"></path>
            </g>
        </g>
    </g>
</svg>