<?xml version="1.0" encoding="UTF-8"?>
<svg width="256px" height="256px" viewBox="0 0 256 256" version="1.1" xmlns="http://www.w3.org/2000/svg" xmlns:xlink="http://www.w3.org/1999/xlink">
    <!-- Generator: Sketch 52.6 (67491) - http://www.bohemiancoding.com/sketch -->
    <title>Top 10 Baselland</title>
    <desc>Created with Sketch.</desc>
    <g id="Page-1" stroke="none" stroke-width="1" fill="none" fill-rule="evenodd">
        <g id="Top-10-Baselland" fill="#FFFFFF">
            <g id="Icon" transform="translate(79.000000, 34.000000)">
                <circle id="Oval" cx="5.5" cy="38.5" r="5.5"></circle>
                <circle id="Oval-Copy" cx="12.5" cy="22.5" r="5.5"></circle>
                <circle id="Oval-Copy-2" cx="28.5" cy="10.5" r="5.5"></circle>
                <circle id="Oval-Copy-3" cx="46.5" cy="5.5" r="5.5"></circle>
                <circle id="Oval-Copy-4" cx="65.5" cy="7.5" r="5.5"></circle>
                <circle id="Oval-Copy-5" cx="79.5" cy="18.5" r="5.5"></circle>
                <circle id="Oval-Copy-6" cx="84.5" cy="36.5" r="5.5"></circle>
                <path d="M5.23708008,188 C-0.412360027,142.839538 -0.412360027,103.70017 5.23708008,70.5818957 C13.7112402,20.9044845 35.8498253,13.95686 47.3968978,14.0002005 C58.9439702,14.0435409 74.6484588,22.7864647 74.5305981,39.4557331 C74.4127374,56.1250016 63.4974668,63.3089017 53.8047689,62.680395 C34.3950327,61.4218031 39.8232754,43.587778 44.1743577,43.3122568 C44.1743577,45.7702779 41.6061425,50.1035462 43.9716872,53.0356031 C45.548717,54.9903078 48.3846525,56.2160936 52.4794938,56.7129606 C60.3696568,57.5023754 65.0407104,52.3805952 66.4926545,41.34762 C66.9849732,37.6066084 65.4963232,23.2115881 48.1371201,23.6151958 C41.085444,23.7791498 5.64242108,28.6546808 10.2642584,151.35993 C12.4603833,147.966994 24.8013144,125.901882 25.6592994,125.885766 C26.5172844,125.869651 35.7595736,151.35993 43.9716872,162.151605 C45.1541395,163.634917 43.1768388,138.584953 48.5139453,132.176586 C51.4697039,134.854581 62.9649212,149.637922 83.6729375,157.592437 C85.9459552,158.465565 56.1081666,129.960596 51.4697039,100.208944 C50.3384132,92.9527105 53.8047689,124.44011 98,165.131349 C73.3106167,162.151605 59.7506937,151.35993 52.0741528,143.985092 C50.1673876,153.468132 51.2670334,169.213088 51.2670334,179.404279 C45.2300651,175.695964 30.8523351,159.858522 24.5659871,143.985092 C20.2946008,152.390555 13.8516318,167.06219 5.23708008,188 Z" id="Path-2"></path>
            </g>
        </g>
    </g>
</svg>