<?xml version="1.0" encoding="UTF-8"?>
<svg width="254px" height="256px" viewBox="0 0 254 256" version="1.1" xmlns="http://www.w3.org/2000/svg" xmlns:xlink="http://www.w3.org/1999/xlink">
    <!-- Generator: Sketch 52.6 (67491) - http://www.bohemiancoding.com/sketch -->
    <title>formsfx</title>
    <desc>Created with Sketch.</desc>
    <g id="Page-1" stroke="none" stroke-width="1" fill="none" fill-rule="evenodd">
        <g id="formsfx" transform="translate(-1.000000, 0.000000)" fill="#FFFFFF">
            <path d="M94,54 L94,69.0007894 C94,70.6572077 95.3473626,72 97.0092117,72 L159.990788,72 C161.65273,72 163,70.6494043 163,69.0007894 L163,54 L194.005519,54 C195.65638,54 197,55.3434186 197,57.0006095 L197,210.999391 C197,212.664849 195.659325,214 194.005519,214 L61.9944806,214 C60.3436204,214 59,212.656581 59,210.999391 L59,57.0006095 C59,55.3351515 60.3406746,54 61.9944806,54 L94,54 Z M76.0085357,89 C74.8992521,89 74,89.9001762 74,90.992017 L74,98.007983 C74,99.1081436 74.893411,100 76.0085357,100 L180.991464,100 C182.100748,100 183,99.0998238 183,98.007983 L183,90.992017 C183,89.8918564 182.106589,89 180.991464,89 L76.0085357,89 Z M76.0085357,110 C74.8992521,110 74,110.900176 74,111.992017 L74,119.007983 C74,120.108144 74.893411,121 76.0085357,121 L180.991464,121 C182.100748,121 183,120.099824 183,119.007983 L183,111.992017 C183,110.891856 182.106589,110 180.991464,110 L76.0085357,110 Z M97.0033445,152 C95.8969279,152 95,152.900176 95,153.992017 L95,161.007983 C95,162.108144 95.8996312,163 97.0033445,163 L180.996655,163 C182.103072,163 183,162.099824 183,161.007983 L183,153.992017 C183,152.891856 182.100369,152 180.996655,152 L97.0033445,152 Z M75.9968516,131 C74.8940209,131 74,131.900176 74,132.992017 L74,140.007983 C74,141.108144 74.8923153,142 75.9968516,142 L121.003148,142 C122.105979,142 123,141.099824 123,140.007983 L123,132.992017 C123,131.891856 122.107685,131 121.003148,131 L75.9968516,131 Z M75.992017,152 C74.8918564,152 74,152.900176 74,153.992017 L74,161.007983 C74,162.108144 74.9001762,163 75.992017,163 L83.007983,163 C84.1081436,163 85,162.099824 85,161.007983 L85,153.992017 C85,152.891856 84.0998238,152 83.007983,152 L75.992017,152 Z M135.996852,131 C134.894021,131 134,131.900176 134,132.992017 L134,140.007983 C134,141.108144 134.892315,142 135.996852,142 L181.003148,142 C182.105979,142 183,141.099824 183,140.007983 L183,132.992017 C183,131.891856 182.107685,131 181.003148,131 L135.996852,131 Z" id="Combined-Shape"></path>
            <rect id="Rectangle-5-Copy" x="99" y="42" width="59" height="25" rx="2"></rect>
        </g>
    </g>
</svg>