<?xml version="1.0" encoding="UTF-8"?>
<svg width="256px" height="256px" viewBox="0 0 256 256" version="1.1" xmlns="http://www.w3.org/2000/svg" xmlns:xlink="http://www.w3.org/1999/xlink">
    <!-- Generator: Sketch 51.3 (57544) - http://www.bohemiancoding.com/sketch -->
    <title>mosys</title>
    <desc>Created with Sketch.</desc>
    <defs></defs>
    <g id="Page-1" stroke="none" stroke-width="1" fill="none" fill-rule="evenodd">
        <g id="mosys" fill="#FFFFFF" fill-rule="nonzero">
            <g id="Artboard" transform="translate(34.000000, 65.000000)">
                <polygon id="Shape-Copy-26" points="187 124.355628 187 1.84991843 185.150685 0 158.232877 0 156.383562 1.84991843 120.424658 90.0293638 118.575342 90.0293638 82.6164384 1.84991843 80.7671233 0 53.8493151 0 52 1.84991843 52 124.355628 53.8493151 126 75.4246575 126 77.2739726 124.355628 77.2739726 54.0587276 78.9178082 54.0587276 107.684932 124.355628 109.534247 126 129.465753 126 131.109589 124.355628 159.876712 54.0587276 161.726027 54.0587276 161.726027 124.355628 163.575342 126 185.150685 126"></polygon>
                <polygon id="Shape-Copy-29" points="26.4692105 76 28 74.1707317 28 52.8292683 26.4692105 51 1.53078959 51 0 52.8292683 0 74.1707317 1.53078959 76"></polygon>
                <polygon id="Shape-Copy-31" points="26.4692105 25 28 23.1707317 28 1.82926829 26.4692105 0 1.53078959 0 0 1.82926829 0 23.1707317 1.53078959 25"></polygon>
                <polygon id="Shape-Copy-32" points="26.4692105 126 28 124.170732 28 102.829268 26.4692105 101 1.53078959 101 0 102.829268 0 124.170732 1.53078959 126"></polygon>
            </g>
        </g>
    </g>
</svg>